<svg xmlns="http://www.w3.org/2000/svg" width="123" height="40">
  <g fill="#000">
    <path d="M9.5 9.1V9c1.8-.5 3.1-1.9 3.1-3.9C12.6 1.8 9.8.5 7.1.5H0v18.1h6.5c3.5 0 6.9-1.2 6.9-5.2 0-2.2-1.7-4.1-3.9-4.3zM3.2 3.3h2.7c2.4 0 3.5.7 3.5 2.3 0 1.4-1.1 2.3-3.2 2.3H3.3l-.1-4.6zm3 12.5H3.3v-5.2h3c2.6 0 3.9.7 3.9 2.6 0 2.4-2.3 2.6-4 2.6zM27.3 6c-3.7 0-6.7 2.6-6.7 6.5 0 3.8 3 6.4 6.7 6.4s6.6-2.6 6.6-6.4C33.9 8.6 31 6 27.3 6zm0 10.1c-1.5.1-2.9-.8-3.5-2.2-.6-1.3-.3-2.9.8-4 1-1.1 2.6-1.4 4-.8 1.4.5 2.3 1.9 2.3 3.4 0 .9-.4 1.9-1 2.6-.7.7-1.7 1.1-2.6 1zM42 6c-3.7 0-6.7 2.6-6.7 6.5 0 3.8 3 6.4 6.7 6.4s6.6-2.6 6.6-6.4C48.6 8.6 45.7 6 42 6zm0 10.1c-1.5.1-2.9-.8-3.5-2.2-.6-1.3-.3-2.9.8-4 1-1.1 2.6-1.4 4-.8 1.4.5 2.3 1.9 2.3 3.4 0 .9-.4 1.9-1 2.6-.7.7-1.7 1.1-2.6 1zm27.5-4.8v7.3h-3.1v-7c0-1.5-.4-2.8-2.2-2.8-1.9 0-2.7 1.5-2.7 3.1v6.7h-3v-7.3c0-1.5-.6-2.5-2.1-2.5-2 0-2.8 1.5-2.8 3.1v6.7h-3.1V6.3h2.9v2h.1c.7-1.5 2.2-2.4 3.7-2.3 1.9 0 3.2.8 3.9 2.3.8-1.5 2.3-2.4 4-2.3 3.3 0 4.4 2.4 4.4 5.3zM79.3 6c-1.6 0-3.1.7-4.1 1.9h-.1V.1H72v18.5h2.9v-1.8h.1c.9 1.4 2.5 2.2 4.2 2.1 3.7 0 6-2.8 6-6.4 0-3.7-2.4-6.5-5.9-6.5zm-.8 10.1c-1.5.1-2.8-.8-3.4-2.2-.6-1.4-.3-3 .8-4 1-1.1 2.6-1.4 4-.8 1.4.5 2.3 1.9 2.3 3.4 0 .9-.4 1.9-1.1 2.6-.6.7-1.6 1.1-2.5 1h-.1zM93.3 6c-3.7 0-6.7 2.6-6.7 6.5 0 3.8 3 6.4 6.7 6.4 2 .1 3.9-.8 5.2-2.4l-2.2-1.7c-.8 1.1-2 1.7-3.3 1.7-1.7 0-3.2-1.3-3.3-3H99v-.8C99 8.4 96.7 6 93.3 6zm-3.6 5.2c.2-1.7 1.3-2.9 3.1-2.9 2 0 3.1 1.1 3.2 2.9h-6.3zM107.8 6c.3 0 .7.1 1.1.2v3c-.5-.2-1-.2-1.5-.3-.9 0-1.7.3-2.3.9-.7.6-1 1.4-1 2.2v6.6H101V6.3h3.1v2c.7-1.4 2.1-2.3 3.7-2.3zm11.8.3v1.9h-.1c-.9-1.4-2.5-2.3-4.2-2.2-3.8 0-6 2.8-6 6.5 0 3.4 2.4 6.2 6.1 6.2 1.5.1 3-.6 4-1.7v.8c0 2.5-.9 4.2-3.8 4.2-1.6 0-3.1-.7-4.3-1.8l-1.8 2.5c1.7 1.5 3.8 2 6.1 2 4.8 0 6.9-2.8 6.9-7.2V6.3h-2.9zM116 16c-1 0-1.9-.4-2.6-1-.7-.7-1-1.6-1-2.6-.1-.9.3-1.9 1-2.6.7-.7 1.6-1 2.6-1 1-.1 1.9.3 2.6 1 .7.7 1.1 1.6 1 2.6.1 1-.3 1.9-1 2.6-.7.7-1.6 1.1-2.6 1zm-97.4 2.6h-3.1V.1h3.1v18.5zM0 21.499h3.2v15.1h7.7v2.9H0zM20.9 37.899c-.4.6-.9 1.1-1.5 1.4-.7.3-1.5.5-2.3.5-.5 0-1.1-.1-1.6-.2s-1-.3-1.4-.6c-.5-.3-.9-.7-1.1-1.2-.4-.6-.5-1.2-.5-1.8 0-.8.2-1.6.8-2.2.5-.5 1.2-1 2-1.2.9-.3 1.8-.5 2.7-.6 1-.1 1.9-.1 2.9-.1v-.3c0-.7-.3-1.4-.8-1.7-.6-.4-1.3-.6-2-.6-.6 0-1.3.2-1.9.4-.5.3-1 .6-1.4 1l-1.6-1.8c.7-.7 1.5-1.2 2.4-1.5.9-.3 1.8-.5 2.7-.5 1 0 1.9.1 2.7.5.7.2 1.2.6 1.7 1.2.4.5.7 1 .8 1.6.2.6.3 1.2.3 1.9v7.4h-2.9v-1.6zm0-4h-.7c-.5 0-1 0-1.6.1-.5 0-1 .1-1.4.3-.5.1-.9.3-1.2.6-.3.2-.5.6-.4 1-.1.3 0 .5.1.8.2.2.4.3.6.4.2.2.4.2.7.3.2 0 .5.1.7.1.9 0 1.8-.3 2.4-.9.6-.6.9-1.4.8-2.3v-.4zM24.6 27.299h3.3l2.5 8.7h.1l2.6-8.7h3.2l2.7 8.7 2.6-8.7h3.2l-4.2 12.2h-3.1l-2.8-8.6h-.1l-2.7 8.6h-3.1zM48.5 28.5c0 .6-.3 1.1-.8 1.3-.5.2-1.1.1-1.5-.3-.4-.3-.5-.9-.3-1.4.2-.5.7-.9 1.2-.9.4 0 .7.2 1 .4.2.3.4.6.4.9zm-2.4 0c0 .3.1.6.3.8.2.2.5.3.8.3.2 0 .5-.1.7-.3.2-.2.3-.5.2-.8 0-.5-.4-1-1-1-.5 0-1 .5-1 1zm.8.7h-.3v-1.3h.5c.2 0 .3 0 .5.1.1.1.1.2.1.3 0 .1-.1.2-.3.3.2 0 .3.1.3.3 0 .1 0 .2.1.3h-.4c0-.1 0-.2-.1-.3 0-.1-.1-.2-.2-.2h-.2v.5zm0-.7h.2c.1 0 .3-.1.3-.2s-.1-.2-.3-.2h-.2v.4z"/>
  </g>
</svg>
